<svg width="1920" height="111" viewBox="0 0 1920 111" fill="none" xmlns="http://www.w3.org/2000/svg">
<g id="company">
<rect width="1920" height="111" fill="#E2DFCF"/>
<g id="Frame 242">
<g id="Compnay logo-2 1" clip-path="url(#clip0_1174_1547)">
<path id="Vector" d="M26.8085 64.0139C26.8085 68.4017 20 68.4017 20 64.0139L20 39.1629C20 34.7751 26.8085 34.7751 26.8085 39.1629L26.8085 64.0139Z" fill="#503217"/>
<path id="Vector_2" d="M37.8729 72.0959C37.8729 76.4837 31.0645 76.4837 31.0645 72.0959L31.0645 47.2449C31.0645 42.8572 37.8729 42.8572 37.8729 47.2449L37.8729 72.0959Z" fill="#503217"/>
<path id="Vector_3" d="M48.9374 64.0139C48.9374 68.4017 42.1289 68.4017 42.1289 64.0139L42.1289 39.1629C42.1289 34.7751 48.9374 34.7751 48.9374 39.1629L48.9374 64.0139Z" fill="#503217"/>
<path id="Vector_4" d="M59.9999 72.0958C59.9999 76.4835 53.1914 76.4835 53.1914 72.0958L53.1914 48.0447C53.1914 43.657 59.9999 43.657 59.9999 48.0447L59.9999 72.0958Z" fill="#503217"/>
<g id="Clip path group">
<mask id="mask0_1174_1547" style="mask-type:luminance" maskUnits="userSpaceOnUse" x="72" y="35" width="102" height="41">
<g id="clip0_43_237">
<path id="Vector_5" d="M173.6 35.5L72 35.5L72 75.5L173.6 75.5L173.6 35.5Z" fill="white"/>
</g>
</mask>
<g mask="url(#mask0_1174_1547)">
<g id="Group">
<path id="Vector_6" d="M84.2328 61.2149L84.2328 64.6997L72.168 64.6997L72.168 46.2197L84.2328 46.2197L84.2328 49.7045L76.26 49.7045L76.26 53.7965L83.1768 53.7965L83.1768 57.1229L76.26 57.1229L76.26 61.2149L84.2328 61.2149ZM91.2622 64.6997L87.2758 64.6997L87.2758 50.9453L90.6286 50.9453L90.9454 52.8197C92.239 51.4205 93.7702 50.7077 95.6446 50.7077C97.3342 50.7077 98.4694 51.2093 99.1822 52.1597C99.3934 52.4237 99.5518 52.6877 99.6838 53.0045C101.03 51.4469 102.562 50.7077 104.462 50.7077C106.205 50.7077 107.366 51.2093 108.079 52.1597C108.818 53.1365 109.03 54.2717 109.03 57.0701L109.03 64.6997L105.07 64.6997L105.07 57.9677C105.07 56.3837 104.964 55.6973 104.542 55.1429C104.093 54.6149 103.486 54.4037 102.535 54.4037C101.664 54.4037 100.898 54.6677 100.106 55.3277C100.159 55.8293 100.159 56.3837 100.159 57.0701L100.159 64.6997L96.1726 64.6997L96.1726 57.9677C96.1726 56.3837 96.0934 55.6973 95.6446 55.1429C95.2222 54.6149 94.615 54.4037 93.7174 54.4037C92.7406 54.4037 91.843 54.7469 91.2622 55.3541L91.2622 64.6997ZM118.798 64.9109C117.768 64.9109 116.659 64.7261 115.603 64.3301L112.567 64.6997L112.567 44.6357L116.554 44.6357L116.554 52.7405C117.53 51.3941 118.85 50.6813 120.646 50.6813C123.708 50.6813 125.767 52.9781 125.767 57.2813C125.767 62.1917 122.969 64.9109 118.798 64.9109ZM116.554 56.0141L116.554 61.3469C117.161 61.6109 117.742 61.7165 118.349 61.7165C120.276 61.7165 121.622 60.4493 121.622 57.6773C121.622 55.3541 120.619 54.2189 119.167 54.2189C118.006 54.2189 117.161 54.8525 116.554 56.0141ZM132.28 64.6997L128.294 64.6997L128.294 44.6357L132.28 44.6357L132.28 64.6997ZM142.342 64.9109C137.326 64.9109 134.818 62.5877 134.818 57.7829C134.818 53.1893 137.934 50.6813 141.498 50.6813C145.273 50.6813 147.094 52.9517 147.094 56.9117C147.094 57.6509 147.042 58.3109 146.989 58.9709L138.884 58.9709C139.28 61.0301 140.679 61.7429 143.24 61.7429C144.296 61.7429 145.378 61.6373 146.302 61.5053L146.118 64.6469C145.167 64.8053 143.874 64.9109 142.342 64.9109ZM141.392 53.6381C140.019 53.6381 139.016 54.6149 138.805 56.8061L143.319 56.5685C143.319 54.5621 142.712 53.6381 141.392 53.6381ZM153.756 64.6997L149.77 64.6997L149.77 50.9453L153.122 50.9453L153.439 52.8197C154.733 51.4205 156.264 50.7077 158.138 50.7077C159.828 50.7077 160.963 51.2093 161.676 52.1597C161.887 52.4237 162.046 52.6877 162.178 53.0045C163.524 51.4469 165.055 50.7077 166.956 50.7077C168.698 50.7077 169.86 51.2093 170.573 52.1597C171.312 53.1365 171.523 54.2717 171.523 57.0701L171.523 64.6997L167.563 64.6997L167.563 57.9677C167.563 56.3837 167.458 55.6973 167.035 55.1429C166.586 54.6149 165.979 54.4037 165.029 54.4037C164.158 54.4037 163.392 54.6677 162.6 55.3277C162.653 55.8293 162.653 56.3837 162.653 57.0701L162.653 64.6997L158.666 64.6997L158.666 57.9677C158.666 56.3837 158.587 55.6973 158.138 55.1429C157.716 54.6149 157.109 54.4037 156.211 54.4037C155.234 54.4037 154.337 54.7469 153.756 55.3541L153.756 64.6997Z" fill="#503217"/>
</g>
</g>
</g>
</g>
<g id="Compnay logo-4 1" clip-path="url(#clip1_1174_1547)">
<path id="Vector_7" d="M392.4 75.3513C414.69 72.1671 414.69 38.8825 392.4 35.6982C405.797 45.3137 405.761 65.7317 392.4 75.3513Z" fill="#503217"/>
<path id="Vector_8" d="M383.578 74.5587C384.966 75.0048 386.354 75.3022 387.841 75.4014C399.36 64.8334 399.367 46.1656 387.841 35.5996C386.354 35.7483 384.916 36.0457 383.578 36.4422C393.255 47.066 393.252 63.9385 383.578 74.5587Z" fill="#503217"/>
<path id="Vector_9" d="M378.422 72.08C387.817 63.2128 387.906 47.8146 378.422 38.9697C366.846 46.6868 366.841 64.3597 378.422 72.08Z" fill="#503217"/>
<path id="Vector_10" d="M431.544 49.0897C427.948 49.0897 425.89 51.6937 425.89 55.6121C425.89 59.6545 428.221 61.8617 431.569 61.8617C434.718 61.8617 436.628 60.1257 436.628 57.2241L436.628 57.1497L431.147 57.1497L431.147 54.3473L439.579 54.3473L439.579 64.5401L436.901 64.5401L436.702 62.4569C435.71 63.8457 433.652 64.8129 431.197 64.8129C426.113 64.8129 422.566 61.1177 422.566 55.5377C422.566 50.0321 426.162 46.1137 431.618 46.1137C435.76 46.1137 438.959 48.5193 439.48 52.2145L436.132 52.2145C435.562 50.0817 433.726 49.0897 431.544 49.0897ZM450.249 52.2393L450.249 55.0417L449.133 55.0417C446.95 55.0417 445.586 56.2073 445.586 58.5881L445.586 64.5401L442.561 64.5401L442.561 52.3137L445.413 52.3137L445.586 54.0993C446.107 52.8841 447.273 52.0657 448.91 52.0657C449.331 52.0657 449.753 52.1153 450.249 52.2393ZM455.458 64.8625C452.854 64.8625 451.266 63.3497 451.266 61.0433C451.266 58.7865 452.903 57.3729 455.805 57.1497L459.475 56.8769L459.475 56.6041C459.475 54.9425 458.483 54.2729 456.946 54.2729C455.16 54.2729 454.168 55.0169 454.168 56.3065L451.589 56.3065C451.589 53.6529 453.771 51.9169 457.094 51.9169C460.393 51.9169 462.426 53.7025 462.426 57.1001L462.426 64.5401L459.773 64.5401L459.55 62.7297C459.029 63.9945 457.367 64.8625 455.458 64.8625ZM456.45 62.5809C458.31 62.5809 459.5 61.4649 459.5 59.5801L459.5 58.9353L456.946 59.1337C455.061 59.3073 454.342 59.9273 454.342 60.9193C454.342 62.0353 455.086 62.5809 456.45 62.5809ZM465.399 70.2193L465.399 52.2889L468.202 52.2889L468.4 54.1489C469.144 52.7353 470.756 51.9169 472.616 51.9169C476.063 51.9169 478.345 54.4217 478.345 58.2657C478.345 62.0849 476.262 64.8625 472.616 64.8625C470.781 64.8625 469.194 64.1433 468.425 62.9033L468.425 70.2193L465.399 70.2193ZM468.45 58.4145C468.45 60.6217 469.814 62.1345 471.897 62.1345C474.03 62.1345 475.294 60.5969 475.294 58.4145C475.294 56.2321 474.03 54.6697 471.897 54.6697C469.814 54.6697 468.45 56.2073 468.45 58.4145ZM483.779 64.5401L480.754 64.5401L480.754 46.0889L483.804 46.0889L483.804 53.8761C484.573 52.6857 486.011 51.9169 487.772 51.9169C490.798 51.9169 492.385 53.8265 492.385 57.0009L492.385 64.5401L489.359 64.5401L489.359 57.7201C489.359 55.6617 488.342 54.6697 486.805 54.6697C484.895 54.6697 483.779 56.0089 483.779 57.8441L483.779 64.5401ZM494.638 58.3897C494.638 54.5705 497.391 51.9417 501.186 51.9417C504.98 51.9417 507.733 54.5705 507.733 58.3897C507.733 62.2089 504.98 64.8377 501.186 64.8377C497.391 64.8377 494.638 62.2089 494.638 58.3897ZM497.664 58.3897C497.664 60.6217 499.102 62.1345 501.186 62.1345C503.269 62.1345 504.707 60.6217 504.707 58.3897C504.707 56.1577 503.269 54.6449 501.186 54.6449C499.102 54.6449 497.664 56.1577 497.664 58.3897Z" fill="#503217"/>
</g>
<g id="Compnay logo-15 1" clip-path="url(#clip2_1174_1547)">
<path id="Vector_11" d="M751.092 45.1501C751.593 43.1846 750.406 41.185 748.44 40.684C746.475 40.183 744.475 41.3702 743.974 43.3358C743.473 45.3013 744.66 47.3009 746.626 47.8018C748.591 48.3029 750.591 47.1157 751.092 45.1501Z" fill="#503217"/>
<path id="Vector_12" d="M738.758 41.8566C742.152 37.6214 736.201 33.3645 733.091 37.2442C732.917 37.4191 712.75 62.2724 712.614 62.4794C709.03 66.9506 714.731 71.5198 718.28 67.0918C718.455 66.9168 738.621 42.0635 738.758 41.8566Z" fill="#503217"/>
<path id="Vector_13" d="M743.201 55.3892C746.458 51.3251 740.757 46.756 737.536 50.7753C737.36 50.9513 723.66 67.895 723.523 68.1037C720.244 72.35 725.945 76.9189 729.188 72.7176C729.364 72.5416 743.063 55.5979 743.201 55.3892Z" fill="#503217"/>
<path id="Vector_14" d="M718.044 47.6716C719.94 46.9503 720.892 44.8288 720.171 42.933C719.449 41.0373 717.328 40.0852 715.432 40.8065C713.536 41.5278 712.584 43.6494 713.306 45.5451C714.027 47.4409 716.148 48.393 718.044 47.6716Z" fill="#503217"/>
<g id="Clip path group_2">
<mask id="mask1_1174_1547" style="mask-type:luminance" maskUnits="userSpaceOnUse" x="763" y="35" width="108" height="41">
<g id="clip0_43_396">
<path id="Vector_15" d="M870.399 35.5L763.199 35.5L763.199 75.5L870.399 75.5L870.399 35.5Z" fill="white"/>
</g>
</mask>
<g mask="url(#mask1_1174_1547)">
<g id="Group_2">
<path id="Vector_16" d="M768.716 64.9802L763.264 46.6506L765.184 46.6506L768.896 59.2458C769.152 60.1418 769.382 61.0634 769.612 62.2666C769.92 60.9354 770.176 60.1418 770.457 59.2458L774.451 46.6506L776.371 46.6506L780.364 59.2458C780.646 60.1674 780.902 61.089 781.184 62.2666C781.465 60.8586 781.696 59.9626 781.9 59.2714L785.689 46.6506L787.558 46.6506L782.054 64.9802L780.313 64.9802L775.398 49.4154L770.483 64.9802L768.716 64.9802ZM788.382 64.9802L786.513 64.9802L793.246 46.6506L795.524 46.6506L802.334 64.9802L800.414 64.9802L798.622 60.1162L790.174 60.1162L788.382 64.9802ZM794.142 49.2362L790.737 58.5034L798.033 58.5034L794.602 49.2362C794.526 48.9802 794.398 48.673 794.372 48.4938C794.346 48.6474 794.244 48.9802 794.142 49.2362ZM807.382 57.3258L801.161 46.6506L803.234 46.6506L807.766 54.561C807.97 54.945 808.124 55.2522 808.303 55.6618C808.534 55.201 808.534 55.201 808.866 54.561L813.346 46.6506L815.369 46.6506L809.225 57.3258L809.225 64.9802L807.382 64.9802L807.382 57.3258ZM820.98 46.2666L820.98 61.9594L828.814 61.9594L828.814 64.9802L817.703 64.9802L817.703 46.2666L820.98 46.2666ZM834.755 46.2666L834.755 64.9802L831.478 64.9802L831.478 46.2666L834.755 46.2666ZM842.129 64.9802L838.903 64.9802L838.903 46.2666L842.154 46.2666L850.935 59.5274L850.935 46.2666L854.161 46.2666L854.161 64.9802L850.935 64.9802L842.129 51.7194L842.129 64.9802ZM869.926 64.9802L858.303 64.9802L858.303 46.2666L869.926 46.2666L869.926 49.2874L861.58 49.2874L861.58 54.1002L869.055 54.1002L869.055 56.993L861.58 56.993L861.58 61.9594L869.926 61.9594L869.926 64.9802Z" fill="#503217"/>
</g>
</g>
</g>
</g>
<g id="Compnay logo-10 1" clip-path="url(#clip3_1174_1547)">
<path id="Vector_17" d="M1093.08 46.9592C1100.09 47.0077 1105.87 52.8782 1105.78 59.8635C1105.68 66.8219 1099.93 72.5147 1092.97 72.5308C1085.99 72.547 1080.17 66.6711 1080.22 59.675C1080.26 52.6089 1086.03 46.9162 1093.08 46.9592ZM1102.72 59.7558C1102.73 54.327 1098.33 49.9214 1092.93 49.9429C1087.63 49.9645 1083.27 54.3431 1083.21 59.6965C1083.16 64.9799 1087.58 69.4555 1092.87 69.4717C1098.36 69.4932 1102.71 65.2062 1102.72 59.7558Z" fill="#503217"/>
<path id="Vector_18" d="M1084.91 74.5881C1077.64 73.0208 1072.03 65.6423 1071.81 57.8599C1071.57 49.7974 1077.06 42.3489 1084.87 40.1408C1092.02 38.1211 1100.73 41.0402 1103.79 46.5875C1095.64 39.0009 1082.75 40.0823 1076.73 49.749C1072.23 56.9713 1073.37 68.8361 1084.91 74.5881Z" fill="#503217"/>
<path id="Vector_19" d="M1081.95 75.5C1073.66 73.7134 1067.27 65.3019 1067.01 56.4301C1066.74 47.239 1073 38.7477 1081.9 36.2305C1090.04 33.9281 1099.98 37.2558 1103.47 43.5797C1094.17 34.931 1079.48 36.1638 1072.62 47.1837C1067.49 55.417 1068.79 68.9428 1081.95 75.5Z" fill="#503217"/>
<path id="Vector_20" d="M1103.49 49.4146C1095.37 42.2084 1085.53 45.2353 1081.33 51.0788C1078.61 54.8811 1077.82 59.0658 1079 63.5522C1080.16 67.9631 1083.05 71.033 1087.49 73.2412C1081.46 72.1855 1076.6 66.2074 1076.04 59.6637C1075.46 52.9369 1079.83 46.3178 1086.36 44.045C1092.64 41.853 1100.01 44.1312 1103.49 49.4146Z" fill="#503217"/>
<path id="Vector_21" d="M1093 64.6193C1095.69 64.6193 1097.87 62.4371 1097.87 59.7452C1097.87 57.0533 1095.69 54.8711 1093 54.8711C1090.3 54.8711 1088.12 57.0533 1088.12 59.7452C1088.12 62.4371 1090.3 64.6193 1093 64.6193Z" fill="#503217"/>
<g id="Clip path group_3">
<mask id="mask2_1174_1547" style="mask-type:luminance" maskUnits="userSpaceOnUse" x="1118" y="35" width="77" height="41">
<g id="clip0_43_356">
<path id="Vector_22" d="M1194.4 35.5L1118.4 35.5L1118.4 75.5L1194.4 75.5L1194.4 35.5Z" fill="white"/>
</g>
</mask>
<g mask="url(#mask2_1174_1547)">
<g id="Group_3">
<path id="Vector_23" d="M1126.18 64.892C1120.93 64.892 1118.64 62.4712 1118.64 58.9624L1118.64 58.5L1121.52 58.5L1121.52 58.7992C1121.52 61.0568 1122.48 62.1992 1126.28 62.1992C1128.98 62.1992 1129.96 61.4648 1129.96 59.7784C1129.96 58.1192 1129.41 57.5208 1126.61 56.9496L1123.51 56.324C1120.38 55.7256 1118.7 54.2024 1118.7 51.3192C1118.7 48.6264 1120.79 46.124 1125.5 46.124C1130.53 46.124 1132.54 48.9528 1132.54 52.1896L1132.54 52.516L1129.66 52.516L1129.66 52.2168C1129.66 49.9864 1128.68 48.8168 1125.41 48.8168C1122.72 48.8168 1121.63 49.5784 1121.63 51.1832C1121.63 52.8424 1122.37 53.3048 1124.87 53.8488L1127.97 54.5016C1131.4 55.2088 1132.89 56.9224 1132.89 59.6696C1132.89 62.5256 1130.83 64.892 1126.18 64.892ZM1137.89 49.388L1134.97 49.388L1134.95 46.396L1137.89 46.396L1137.89 49.388ZM1137.91 64.62L1134.97 64.62L1134.97 51.02L1137.91 51.02L1137.91 64.62ZM1145.73 63.3416C1142 63.3416 1139.93 60.8936 1139.93 57.0856C1139.93 53.2776 1142.03 50.8296 1145.84 50.8296C1148.01 50.8296 1149.7 51.7544 1150.35 53.332L1150.46 53.332L1150.46 51.1016L1153.15 51.1016L1153.15 63.6408C1153.15 67.6392 1150.81 69.516 1146.87 69.516C1143.03 69.516 1140.64 67.6936 1140.64 64.4296L1143.55 64.4296C1143.55 66.2792 1144.23 66.9048 1146.95 66.9048C1149.59 66.9048 1150.24 66.1432 1150.24 63.6408L1150.24 60.948L1150.13 60.948C1149.51 62.2536 1147.93 63.3416 1145.73 63.3416ZM1142.87 57.0856C1142.87 59.86 1144.01 60.8392 1146.57 60.8392C1148.77 60.8392 1150.24 59.7784 1150.24 57.4936L1150.24 56.6504C1150.24 54.3928 1148.77 53.332 1146.52 53.332C1143.99 53.332 1142.87 54.3112 1142.87 57.0856ZM1158.98 64.62L1156.04 64.62L1156.04 51.1016L1158.74 51.1016L1158.74 53.6312L1158.84 53.6312C1159.47 52.1896 1160.91 50.8296 1163.55 50.8296C1167.06 50.8296 1168.64 53.06 1168.64 56.1336L1168.64 64.62L1165.7 64.62L1165.7 56.7864C1165.7 54.3656 1164.94 53.3592 1162.46 53.3592C1160.07 53.3592 1158.98 54.284 1158.98 56.8136L1158.98 64.62ZM1177.41 64.892C1172.95 64.892 1170.85 62.0632 1170.85 57.8472C1170.85 53.6584 1173.35 50.8296 1177.38 50.8296C1181.02 50.8296 1183.58 53.0056 1183.58 56.7048C1183.58 57.412 1183.5 58.1464 1183.42 58.5544L1173.6 58.5544C1173.71 61.0296 1174.6 62.2808 1177.43 62.2808C1179.69 62.2808 1180.56 61.5192 1180.56 60.2952L1180.56 60.0776L1183.47 60.0776L1183.47 60.3224C1183.47 63.0968 1181.05 64.892 1177.41 64.892ZM1177.32 53.3048C1174.77 53.3048 1173.79 54.5016 1173.63 56.596L1180.78 56.596C1180.89 54.284 1179.64 53.3048 1177.32 53.3048ZM1191.45 64.62C1188.43 64.62 1186.85 63.5048 1186.85 60.4584L1186.85 53.5496L1184.6 53.5496L1184.6 51.1016L1186.91 51.1016L1187.53 47.756L1189.79 47.756L1189.79 51.1016L1193.87 51.1016L1193.87 53.5496L1189.79 53.5496L1189.79 60.3224C1189.79 61.7368 1190.39 61.9816 1192.21 61.9816L1193.87 61.9816L1193.87 64.3752C1193.3 64.5112 1192.38 64.62 1191.45 64.62Z" fill="#503217"/>
</g>
</g>
</g>
</g>
<g id="Compnay logo-16 1" clip-path="url(#clip4_1174_1547)">
<path id="Vector_24" d="M1401.86 61.8862C1397.62 61.8862 1390.99 62.4954 1390.99 56.3765C1390.99 53.2641 1393.25 50.5645 1396.5 50.5645C1407.09 50.5645 1415.66 59.1422 1415.66 69.7293C1415.66 72.7665 1413.23 75.3254 1410.16 75.3254C1404.13 75.3254 1404.65 68.9002 1404.65 64.695C1404.65 63.1394 1403.39 61.8862 1401.86 61.8862Z" fill="#503217"/>
<path id="Vector_25" d="M1416.79 46.9559C1416.79 42.7135 1417.4 36.0879 1411.28 36.0879C1408.17 36.0879 1405.47 38.3518 1405.47 41.5975C1405.47 52.1847 1414.04 60.7625 1424.63 60.7625L1424.72 60.7625C1427.76 60.7625 1430.23 58.2993 1430.23 55.2528C1430.23 49.2271 1423.8 49.7432 1419.6 49.7432C1418.04 49.7432 1416.79 48.49 1416.79 46.9559Z" fill="#503217"/>
<g id="Clip path group_4">
<mask id="mask3_1174_1547" style="mask-type:luminance" maskUnits="userSpaceOnUse" x="1442" y="36" width="109" height="40">
<g id="clip0_43_404">
<path id="Vector_26" d="M1550.4 36.2842L1442.17 36.2842L1442.17 75.4999L1550.4 75.4999L1550.4 36.2842Z" fill="white"/>
</g>
</mask>
<g mask="url(#mask3_1174_1547)">
<g id="Group_4">
<path id="Vector_27" d="M1448.61 58.8303L1445.86 58.8303L1445.86 64.5198L1442.16 64.5198L1442.16 47.0625L1448.61 47.0625C1452.86 47.0625 1455.51 49.0805 1455.51 52.8735C1455.51 56.6664 1452.86 58.8303 1448.61 58.8303ZM1448.58 50.1747L1445.86 50.1747L1445.86 55.7182L1448.58 55.7182C1450.67 55.7182 1451.84 54.6241 1451.84 52.8978C1451.84 51.1715 1450.67 50.1747 1448.58 50.1747ZM1461.72 64.5198L1458.02 64.5198L1458.02 47.0625L1464.86 47.0625C1469.26 47.0625 1471.81 49.1049 1471.81 52.7276C1471.81 55.086 1470.35 56.9582 1467.87 57.7849L1472.37 64.5198L1467.97 64.5198L1464.03 58.3441L1461.72 58.3441L1461.72 64.5198ZM1461.72 50.126L1461.72 55.3049L1464.69 55.3049C1466.92 55.3049 1468.11 54.4296 1468.11 52.7276C1468.11 51.0013 1466.92 50.126 1464.69 50.126L1461.72 50.126ZM1486.41 61.3103L1486.41 64.5198L1474.67 64.5198L1474.67 47.0625L1486.24 47.0625L1486.24 50.2719L1478.36 50.2719L1478.36 53.9433L1485.51 53.9433L1485.51 57.1284L1478.36 57.1284L1478.36 61.3103L1486.41 61.3103ZM1500.55 64.5198L1489.27 64.5198L1489.27 47.0625L1492.97 47.0625L1492.97 61.1888L1500.55 61.1888L1500.55 64.5198ZM1516.82 47.0625L1516.82 57.8821C1516.82 62.0154 1514.19 64.8845 1509.64 64.8845C1505.02 64.8845 1502.45 62.0154 1502.45 57.8821L1502.45 47.0625L1506.14 47.0625L1506.14 57.955C1506.14 60.119 1507.19 61.5778 1509.64 61.5778C1512.07 61.5778 1513.12 60.119 1513.12 57.955L1513.12 47.0625L1516.82 47.0625ZM1526.55 64.5198L1520.35 64.5198L1520.35 47.0625L1526.55 47.0625C1532.09 47.0625 1535.45 50.6123 1535.45 55.6939C1535.45 60.7754 1531.97 64.5198 1526.55 64.5198ZM1524.05 50.2476L1524.05 61.3347L1526.36 61.3347C1529.83 61.3347 1531.66 59.3166 1531.66 55.6939C1531.66 52.217 1529.83 50.2476 1526.36 50.2476L1524.05 50.2476ZM1549.76 61.3103L1549.76 64.5198L1538.02 64.5198L1538.02 47.0625L1549.59 47.0625L1549.59 50.2719L1541.71 50.2719L1541.71 53.9433L1548.86 53.9433L1548.86 57.1284L1541.71 57.1284L1541.71 61.3103L1549.76 61.3103Z" fill="#503217"/>
</g>
</g>
</g>
</g>
<g id="Compnay logo-12 1" clip-path="url(#clip5_1174_1547)">
<path id="Vector_28" fill-rule="evenodd" clip-rule="evenodd" d="M1766.79 74.3474C1775.11 74.3474 1782.48 68.8572 1784.83 60.8572C1778.29 61.9477 1771.23 59.2372 1766.79 54.4258C1762.35 59.2372 1755.3 61.9477 1748.75 60.8572C1751.26 69.014 1758.48 74.3474 1766.79 74.3474Z" fill="#503217"/>
<path id="Vector_29" fill-rule="evenodd" clip-rule="evenodd" d="M1785.62 56.9353C1785.62 48.1416 1780.94 40.0766 1772.13 37.4844C1772.93 42.341 1771.54 47.6377 1768.99 51.7589C1773.21 56.177 1779.62 58.4331 1785.62 56.9353Z" fill="#503217"/>
<path id="Vector_30" fill-rule="evenodd" clip-rule="evenodd" d="M1764.44 51.602C1761.82 47.5798 1760.5 42.2764 1761.3 37.4844C1752.56 40.1071 1747.97 48.216 1747.97 56.9353C1753.93 58.4262 1760.42 56.2253 1764.44 51.602Z" fill="#503217"/>
<path id="Vector_31" fill-rule="evenodd" clip-rule="evenodd" d="M1766.79 48.308C1768.05 45.9551 1768.67 43.2884 1768.67 40.4649C1768.67 39.21 1768.52 37.9551 1768.2 36.7002C1767.73 36.7002 1767.26 36.7002 1766.79 36.7002C1766.32 36.7002 1765.85 36.7002 1765.38 36.7002C1765.07 37.9551 1764.91 39.21 1764.91 40.4649C1764.91 43.2884 1765.69 45.9551 1766.79 48.308Z" fill="#503217"/>
<g id="Clip path group_5">
<mask id="mask4_1174_1547" style="mask-type:luminance" maskUnits="userSpaceOnUse" x="1798" y="35" width="104" height="41">
<g id="clip0_43_372">
<path id="Vector_32" d="M1901.6 35.5L1798.4 35.5L1798.4 75.5L1901.6 75.5L1901.6 35.5Z" fill="white"/>
</g>
</mask>
<g mask="url(#mask4_1174_1547)">
<g id="Group_5">
<path id="Vector_33" d="M1809.23 59.6304C1809.23 58.7328 1808.18 58.4424 1806.62 58.0464L1804.37 57.492C1801.31 56.7264 1798.57 55.6176 1798.57 51.9216C1798.57 48.1992 1801.81 46.14 1805.72 46.14C1809.18 46.14 1811.37 47.1168 1812.56 47.8032L1812.56 52.5816C1810.79 51.4728 1807.89 50.4432 1805.56 50.4432C1804.19 50.4432 1803.37 50.7864 1803.37 51.5784C1803.37 52.5024 1804.45 52.7928 1806.25 53.268L1808.2 53.796C1810.95 54.5352 1813.85 55.5384 1813.85 59.34C1813.85 62.9304 1810.71 64.884 1806.51 64.884C1803.21 64.884 1800.55 63.828 1799.33 62.9568L1799.33 58.3368C1801.13 59.6568 1804.4 60.7392 1806.8 60.7392C1808.65 60.7392 1809.23 60.3432 1809.23 59.6304ZM1818.1 49.3344C1816.36 49.3344 1815.3 48.5424 1815.3 47.196C1815.3 45.8496 1816.36 45.084 1818.1 45.084C1819.87 45.084 1820.87 45.8496 1820.87 47.196C1820.87 48.5424 1819.87 49.3344 1818.1 49.3344ZM1815.96 50.628L1820.18 50.628L1820.18 64.62L1815.96 64.62L1815.96 50.628ZM1836.12 61.584C1836.12 67.1016 1832.71 69.0552 1828.78 69.0552C1826.56 69.0552 1824.66 68.4216 1823.5 67.7088L1823.5 63.4584C1824.79 64.4352 1826.51 65.0952 1828.3 65.0952C1831.1 65.0952 1831.89 63.8808 1831.89 62.244L1831.89 62.0856C1830.99 62.6664 1829.83 63.1152 1828.3 63.1152C1825 63.1152 1822.47 60.8976 1822.47 57.36C1822.47 52.476 1826.4 50.364 1830.2 50.364C1832.84 50.364 1834.72 51.0504 1836.12 51.6048L1836.12 61.584ZM1826.85 56.7792C1826.85 58.7064 1828.14 59.3136 1829.54 59.3136C1830.36 59.3136 1831.2 59.1024 1831.89 58.8384L1831.89 54.3768C1831.39 54.2448 1830.81 54.1392 1830.18 54.1392C1828.38 54.1392 1826.85 54.9312 1826.85 56.7792ZM1845.8 54.456C1844.71 54.456 1843.68 54.6936 1842.92 55.0104L1842.92 64.62L1838.7 64.62L1838.7 50.628L1842.66 50.628L1842.66 52.2912C1843.76 51.288 1845.56 50.364 1847.72 50.364C1851.18 50.364 1852.42 52.5816 1852.42 55.644L1852.42 64.62L1848.2 64.62L1848.2 56.7792C1848.2 55.4328 1847.59 54.456 1845.8 54.456ZM1861.54 60.792C1862.62 60.792 1863.65 60.5544 1864.41 60.2376L1864.41 50.628L1868.64 50.628L1868.64 64.62L1864.68 64.62L1864.68 62.9568C1863.57 63.96 1861.77 64.884 1859.61 64.884C1856.15 64.884 1854.91 62.6664 1854.91 59.604L1854.91 50.628L1859.13 50.628L1859.13 58.4688C1859.13 59.8152 1859.74 60.792 1861.54 60.792ZM1878.12 54.456C1877.14 54.456 1876.22 54.72 1875.51 55.0104L1875.51 64.62L1871.28 64.62L1871.28 50.628L1875.24 50.628L1875.24 52.2912C1876.32 51.288 1877.99 50.364 1880.05 50.364C1882.08 50.364 1883.29 51.2088 1883.93 52.5816C1884.96 51.4728 1886.78 50.364 1889.02 50.364C1892.3 50.364 1893.46 52.5816 1893.46 55.644L1893.46 64.62L1889.23 64.62L1889.23 56.7792C1889.23 55.4064 1888.71 54.456 1887.1 54.456C1886.12 54.456 1885.17 54.72 1884.46 55.0104C1884.48 55.2216 1884.48 55.4328 1884.48 55.644L1884.48 64.62L1880.26 64.62L1880.26 56.7792C1880.26 55.4064 1879.73 54.456 1878.12 54.456ZM1898.22 65.016C1896.77 65.016 1895.61 63.8544 1895.61 62.4024C1895.61 60.9504 1896.77 59.7624 1898.22 59.7624C1899.68 59.7624 1900.86 60.9504 1900.86 62.4024C1900.86 63.8544 1899.68 65.016 1898.22 65.016Z" fill="#503217"/>
</g>
</g>
</g>
</g>
</g>
</g>
<defs>
<clipPath id="clip0_1174_1547">
<rect width="153.6" height="40" fill="white" transform="translate(20 35.5)"/>
</clipPath>
<clipPath id="clip1_1174_1547">
<rect width="145.6" height="40" fill="white" transform="translate(369.6 35.5)"/>
</clipPath>
<clipPath id="clip2_1174_1547">
<rect width="159.2" height="40" fill="white" transform="translate(711.199 35.5)"/>
</clipPath>
<clipPath id="clip3_1174_1547">
<rect width="128" height="40" fill="white" transform="translate(1066.4 35.5)"/>
</clipPath>
<clipPath id="clip4_1174_1547">
<rect width="160" height="40" fill="white" transform="translate(1390.4 35.5)"/>
</clipPath>
<clipPath id="clip5_1174_1547">
<rect width="155.2" height="40" fill="white" transform="translate(1746.4 35.5)"/>
</clipPath>
</defs>
</svg>
