<svg width="77" height="55" viewBox="0 0 77 55" fill="none" xmlns="http://www.w3.org/2000/svg">
<path fill-rule="evenodd" clip-rule="evenodd" d="M60.7298 15.0139C63.4905 11.1462 68.7087 6.98248 75.8128 3.51623C77.6589 2.61544 76.8261 -0.176525 74.7881 0.0812607C59.8619 1.96931 50.1873 8.50643 44.9043 18.2279C42.9393 21.8436 41.7048 25.6921 41.0474 29.6208C40.6139 32.2111 40.4994 34.155 40.4994 36.4002C40.4994 46.4334 48.6329 54.5669 58.6661 54.5669C68.6993 54.5669 76.8327 46.4334 76.8327 36.4002C76.8327 26.3671 68.5695 18.2279 59.0737 18.2279C59.5746 16.8524 59.695 16.4637 60.7298 15.0139ZM20.7631 15.0139C23.5238 11.1462 28.7421 6.98248 35.8461 3.51623C37.6922 2.61544 36.8594 -0.176525 34.8214 0.0812607C19.8952 1.96931 10.2207 8.50643 4.93758 18.2279C2.97266 21.8436 1.73815 25.6921 1.08072 29.6208C0.647247 32.2111 0.532745 34.155 0.532745 36.4002C0.532745 46.4334 8.66624 54.5669 18.6994 54.5669C28.7326 54.5669 36.8661 46.4334 36.8661 36.4002C36.8661 26.3671 28.6028 18.2279 19.107 18.2279C19.608 16.8524 19.7283 16.4637 20.7631 15.0139Z" fill="#8F7D6A"/>
</svg>
