<svg width="55" height="54" viewBox="0 0 55 54" fill="none" xmlns="http://www.w3.org/2000/svg">
<g id="Group 123">
<g id="logo 2" clip-path="url(#clip0_1201_275)">
<path id="Vector" fill-rule="evenodd" clip-rule="evenodd" d="M11.823 4.37549C7.99625 6.98979 4.90344 10.5414 2.8399 14.6911C0.776354 18.8409 -0.189049 23.4504 0.0358562 28.0795C0.260762 32.7085 1.66847 37.2027 4.12459 41.1329C6.5807 45.0631 10.0032 48.2981 14.0654 50.5291C18.1276 52.7601 22.6939 53.9126 27.3283 53.8766C31.9627 53.8406 36.5105 52.6173 40.5376 50.3235C44.5646 48.0296 47.9365 44.7418 50.3313 40.774C52.726 36.8061 54.0637 32.2906 54.2167 27.6586C53.5295 31.679 51.8911 35.4769 49.4382 38.7357C46.9853 41.9944 43.789 44.6196 40.1157 46.3924C36.4423 48.1651 32.3984 49.0341 28.3211 48.9268C24.2437 48.8195 20.2511 47.7391 16.6761 45.7757C13.101 43.8122 10.0472 41.0226 7.76901 37.6394C5.49088 34.2561 4.0545 30.3773 3.57963 26.3263C3.10476 22.2753 3.60515 18.1695 5.0391 14.3511C6.47305 10.5328 8.799 7.11251 11.823 4.37549Z" fill="#8F7D6A"/>
<path id="Vector_2" fill-rule="evenodd" clip-rule="evenodd" d="M42.1211 41.7767C45.3507 39.5709 47.961 36.5741 49.7027 33.0724C51.4444 29.5706 52.2594 25.6809 52.0698 21.7745C51.8803 17.8681 50.6926 14.0755 48.6201 10.7588C46.5476 7.44209 43.6595 4.71201 40.2316 2.82921C36.8036 0.946416 32.9503 -0.0262403 29.0394 0.00410664C25.1286 0.0344536 21.2908 1.06679 17.8924 3.00255C14.4941 4.93832 11.6487 7.71289 9.62796 11.0614C7.60719 14.4098 6.47848 18.2204 6.34961 22.1292C6.92942 18.7366 8.31186 15.5317 10.3817 12.7817C12.4515 10.0318 15.1488 7.81648 18.2485 6.32053C21.3483 4.82458 24.7607 4.09132 28.2014 4.18189C31.6421 4.27246 35.0112 5.18423 38.028 6.84118C41.0448 8.49814 43.6217 10.8523 45.544 13.7073C47.4663 16.5623 48.6782 19.8355 49.0788 23.254C49.4793 26.6725 49.0568 30.1372 47.8465 33.3592C46.6362 36.5813 44.6732 39.4673 42.1211 41.7767Z" fill="#8F7D6A"/>
<path id="Vector_3" fill-rule="evenodd" clip-rule="evenodd" d="M16.0918 27.4478L16.0918 32.2108L23.0933 32.2108L23.0933 39.1562L27.744 39.1562L27.744 32.2108L34.7482 32.2108L34.7482 27.4478L27.744 27.4478L27.744 20.5024L23.0933 20.5024L23.0933 27.4478L16.0918 27.4478Z" fill="#503217"/>
<path id="Vector_4" fill-rule="evenodd" clip-rule="evenodd" d="M36.3156 18.9343C33.7951 16.4347 30.4861 14.8861 26.9521 14.552C23.4181 14.218 19.8775 15.1191 16.9332 17.1021C13.9889 19.085 11.823 22.0271 10.8041 25.4275C9.78519 28.828 9.97639 32.4764 11.3451 35.7517C12.7138 39.0269 15.1755 41.7266 18.3109 43.3909C21.4463 45.0553 25.0617 45.5814 28.5414 44.8798C32.0212 44.1781 35.1501 42.2921 37.3956 39.5428C39.6411 36.7935 40.8643 33.3509 40.8569 29.8012C40.855 27.7797 40.4527 25.7786 39.6733 23.9135C38.8938 22.0483 37.7527 20.356 36.3156 18.9343ZM25.39 16.466C27.1501 16.453 28.8949 16.7933 30.5211 17.4669C32.1473 18.1405 33.6218 19.1336 34.8571 20.3875C36.1007 21.6253 37.0875 23.0966 37.7608 24.7169C38.4342 26.3372 38.7808 28.0746 38.7808 29.8292C38.7808 31.5838 38.4342 33.3212 37.7608 34.9415C37.0875 36.5618 36.1007 38.0331 34.8571 39.2709C33.619 40.5131 32.1479 41.4986 30.5282 42.1711C28.9084 42.8436 27.1718 43.1898 25.418 43.1898C23.6642 43.1898 21.9277 42.8436 20.3079 42.1711C18.6882 41.4986 17.2171 40.5131 15.979 39.2709C14.1118 37.4054 12.8393 35.0284 12.322 32.4402C11.8047 29.852 12.0658 27.1686 13.0724 24.7286C14.0791 22.2887 15.786 20.2017 17.9778 18.7311C20.1696 17.2606 22.7479 16.4723 25.3873 16.466L25.39 16.466Z" fill="#503217"/>
</g>
</g>
<defs>
<clipPath id="clip0_1201_275">
<rect width="54.2169" height="53.883" fill="white"/>
</clipPath>
</defs>
</svg>
