<svg width="25" height="24" viewBox="0 0 25 24" fill="none" xmlns="http://www.w3.org/2000/svg">
<g id="link-external">
<path id="Vector" d="M13.502 5H10.702C7.70217 5 6.20227 5 5.15081 5.76393C4.81123 6.01065 4.5126 6.30928 4.26589 6.64886C3.50195 7.70032 3.50195 9.20021 3.50195 12.2L3.50195 13.8C3.50195 16.7998 3.50195 18.2997 4.26589 19.3511C4.5126 19.6907 4.81123 19.9893 5.15081 20.2361C6.20227 21 7.70217 21 10.702 21H12.302C15.3017 21 16.8016 21 17.8531 20.2361C18.1927 19.9893 18.4913 19.6907 18.738 19.3511C19.502 18.2997 19.502 16.7998 19.502 13.8V11M10.1247 14.3772L21.502 3M21.502 3L17.2355 3M21.502 3V7.26646" stroke="#EEEDE7" stroke-width="1.5" stroke-linecap="round" stroke-linejoin="round"/>
</g>
</svg>
